<svg viewBox="0 0 24 24" xmlns="http://www.w3.org/2000/svg"><path d="M16.297 13.114c.066 0 .108.072.074.13l-4.25 7.35a.086.086 0 0 1-.074.042H9.45a.086.086 0 0 1-.074-.129l4.25-7.35a.086.086 0 0 1 .074-.043zm-2.527-2.106a.086.086 0 0 1-.074-.043l-4.32-7.473a.086.086 0 0 1 .073-.129h2.598c.03 0 .06.017.074.043l4.322 7.473a.086.086 0 0 1-.075.129z"/><path d="M14.285 3.492a.086.086 0 0 1 .074-.128h2.602c.03 0 .059.016.074.042l4.954 8.551a.086.086 0 0 1 0 .086l-4.954 8.55a.086.086 0 0 1-.074.043h-2.602a.086.086 0 0 1-.074-.128L19.213 12zm-2.115 8.465a.085.085 0 0 1 0 .086l-4.977 8.55a.087.087 0 0 1-.15 0l-5.031-8.55a.085.085 0 0 1 0-.086l4.977-8.55a.087.087 0 0 1 .15 0z"/></svg>