<?xml version="1.0" encoding="UTF-8"?>
<!-- Generated by Pixelmator Pro 2.4.5 -->
<svg width="28" height="33" viewBox="0 0 28 33" xmlns="http://www.w3.org/2000/svg" xmlns:xlink="http://www.w3.org/1999/xlink">
    <path id="Path" fill="#104ade" stroke="none" d="M 5.85944 24.4004 C 5.83356 24.4568 5.80858 24.513599 5.78451 24.570801 C 5.48901 25.2738 5.33691 26.027201 5.33691 26.788099 C 5.33691 27.549 5.48901 28.302401 5.78451 29.0054 C 6.08001 29.7083 6.51313 30.347 7.05914 30.885 C 7.60508 31.4231 8.25322 31.849899 8.96656 32.141102 C 9.6799 32.432301 10.4445 32.582199 11.2166 32.582199 C 11.9887 32.582199 12.7533 32.432301 13.4666 32.141102 C 14.1799 31.849899 14.8281 31.4231 15.374 30.885 L 26.1936 20.223801 C 27.3207 19.1129 27.954 17.6064 27.954 16.0355 C 27.954 14.6245 27.510799 13.264999 26.542999 12.1982 C 26.0653 11.9949 25.5373 11.932499 25.0261 12.0271 C 24.5688 12.1117 24.1497 12.3792 23.800699 12.693401 L 13.5224 23.0882 C 13.3316 23.2822 13.1124 23.443199 12.8737 23.566799 C 12.9998 23.490299 13.1242 23.4105 13.2466 23.3274 C 13.2362 23.331499 13.2257 23.335699 13.2152 23.339701 C 13.2254 23.332899 13.2356 23.326099 13.2458 23.3193 C 13.2563 23.3123 13.2668 23.3053 13.2772 23.298201 C 13.2566 23.312099 13.236 23.326 13.2152 23.339701 C 11.6574 24.3731 9.79837 24.8757 7.92222 24.769501 C 7.21742 24.729601 6.525 24.604601 5.85944 24.4004 Z"/>
    <path id="path1" fill="#0038c7" stroke="none" d="M 13.2146 23.339701 C 13.2353 23.325899 13.256 23.312099 13.2766 23.298201 C 12.8818 23.4559 12.4531 23.5137 12.0298 23.4664 C 11.6064 23.4191 11.2018 23.268101 10.8528 23.0273 C 10.5433 22.812401 10.285 22.533701 10.0959 22.210501 C 9.90671 21.8873 9.79124 21.527399 9.75747 21.155899 C 9.72369 20.7843 9.77243 20.409901 9.9003 20.058701 C 10.0282 19.7076 10.2321 19.3881 10.4979 19.1224 L 13.9192 15.7216 L 18.9158 10.797699 C 18.922899 10.791901 18.929899 10.7859 18.936899 10.7799 C 18.9508 10.768 18.9648 10.7561 18.979601 10.7449 L 19.7316 10.003399 C 20.0994 9.928539 20.4884 9.89636 20.8941 9.89636 C 21.7728 9.89636 22.5203 9.98094 23.2654 10.1933 C 24.3491 10.423901 25.3461 10.959301 26.134199 11.739101 C 26.2829 11.8871 26.4231 12.0446 26.552999 12.2027 C 26.072599 11.9958 25.540501 11.931801 25.025499 12.0271 C 24.568199 12.1117 24.149 12.3792 23.8001 12.693401 L 13.5218 23.0882 C 13.331 23.2822 13.1118 23.4431 12.8731 23.5667 C 12.9992 23.490299 13.1235 23.4105 13.246 23.327299 C 13.2356 23.331499 13.2251 23.3356 13.2146 23.339701 Z"/>
    <path id="path2" fill="#0f75fc" stroke="none" d="M 21.5075 3.564171 C 21.2335 2.91256 20.8318 2.32062 20.3253 1.822241 C 19.739599 1.244551 19.0441 0.786274 18.2785 0.473602 C 17.512899 0.160934 16.692301 0 15.8636 0 C 15.0349 0 14.2143 0.160934 13.4488 0.473602 C 12.6832 0.786274 11.9877 1.244551 11.4019 1.822241 L 2.49384 10.598099 C 0.929697 12.139599 0.035674 14.220299 0.001045 16.3999 C -0.033584 18.5795 0.793899 20.686899 2.30831 22.275801 L 2.40108 22.3647 L 2.49725 22.462799 C 2.5849 22.547701 2.67694 22.628 2.77299 22.703501 C 4.20967 23.9352 6.0207 24.6619 7.92181 24.769501 C 9.82292 24.8771 11.7065 24.3596 13.2768 23.298201 C 12.882 23.4559 12.4533 23.5137 12.03 23.4664 C 11.6066 23.4191 11.202 23.268101 10.853 23.0273 C 10.5435 22.812401 10.2852 22.533701 10.0961 22.210501 C 9.90691 21.8873 9.79144 21.527399 9.75766 21.1558 C 9.72389 20.7843 9.77263 20.409901 9.9005 20.058701 C 10.0284 19.7076 10.2323 19.3881 10.4981 19.1224 L 13.9194 15.7216 L 18.916 10.797699 C 18.937201 10.7801 18.957701 10.7617 18.979799 10.7449 L 20.3253 9.41811 C 21.0879 8.66737 21.6073 7.71055 21.817699 6.66877 C 22.028099 5.626999 21.9202 4.547119 21.5075 3.56584 L 21.5075 3.564171 Z"/>
</svg>
